# xmcd
# 
# Track frame offsets:
#     150
#     18862
#     35494
#     51829
#     75317
#     91359
#     108431
#     122215
#     142703
#     169028
#     189995
#     212616
#     232219
#     249930
#     277320
#     303811
#     325060
#     345873
#     373424
# 
# Disc length: 5267
# 
# Revision: 1
# Processed by: cddbd v1.5.2PL0 Copyright (c) Steve Scherf et al.
# Submitted via: fre:ac v1.0.17
# 
DISCID=05149113
DTITLE=Tonke Dragt - Der Wilde Wald - CD 4
DYEAR=2005
DGENRE=Hörbuch
TTITLE0=01 Eine Schachpartie
TTITLE1=02 Eine Schachpartie
TTITLE2=03 Um Leben Und Tod
TTITLE3=04 Um Leben Und Tod
TTITLE4=05 Um Leben Und Tod
TTITLE5=06 Um Leben Und Tod
TTITLE6=07 Um Leben Und Tod
TTITLE7=08 Um Leben Und Tod
TTITLE8=09 Die Männer In Grün
TTITLE9=10 Die Männer In Grün
TTITLE10=11 Die Männer In Grün
TTITLE11=12 Die Männer In Grün
TTITLE12=13 Der Tiefe See
TTITLE13=14 Der Tiefe See
TTITLE14=15 Der Tiefe See
TTITLE15=16 Fox Folgt Einem Schwarzen Schatten
TTITLE16=17 Fox Folgt Einem Schwarzen Schatten
TTITLE17=18 Fox Folgt Einem Schwarzen Schatten
TTITLE18=19 Fox Folgt Einem Schwarzen Schatten
EXTD=Gelesen Von Konstantin Graudus
EXTT0=
EXTT1=
EXTT2=
EXTT3=
EXTT4=
EXTT5=
EXTT6=
EXTT7=
EXTT8=
EXTT9=
EXTT10=
EXTT11=
EXTT12=
EXTT13=
EXTT14=
EXTT15=
EXTT16=
EXTT17=
EXTT18=
PLAYORDER=
